<?xml version="1.0" standalone="no"?><!DOCTYPE svg PUBLIC "-//W3C//DTD SVG 1.1//EN" "http://www.w3.org/Graphics/SVG/1.1/DTD/svg11.dtd"><svg t="1495103540047" class="icon" style="" viewBox="0 0 1024 1024" version="1.1" xmlns="http://www.w3.org/2000/svg" p-id="8516" xmlns:xlink="http://www.w3.org/1999/xlink" width="16" height="16"><defs><style type="text/css"></style></defs><path d="M902.144 142.78656c37.00736 0 66.53952 9.40032 88.6784 28.18048 22.1184 18.80064 33.1776 47.28832 33.1776 85.48352v504.7296a120.77056 120.77056 0 0 1-34.0992 84.5824 120.2176 120.2176 0 0 1-37.2736 25.92768 109.056 109.056 0 0 1-45.01504 9.54368H114.60608a110.14144 110.14144 0 0 1-44.56448-9.09312 120.27904 120.27904 0 0 1-36.37248-24.10496c-10.32192-10.01472-18.51392-21.66784-24.576-35.0208S0 785.42848 0 770.27328V254.64832c0-32.74752 9.99424-59.57632 30.02368-80.4864 20.00896-20.91008 48.20992-31.37536 84.5824-31.37536H902.144z m-646.59456 168.2432a86.60992 86.60992 0 0 0-60.02688 24.10496c-7.8848 7.5776-14.09024 16.67072-18.6368 27.27936a85.64736 85.64736 0 0 0-6.81984 34.0992c0 12.12416 2.27328 23.3472 6.81984 33.64864a89.16992 89.16992 0 0 0 45.93664 45.93664 80.1792 80.1792 0 0 0 32.72704 6.81984c12.73856 0 24.41216-2.27328 35.0208-6.81984a82.08384 82.08384 0 0 0 27.27936-18.6368c7.5776-7.8848 13.63968-16.97792 18.20672-27.29984a82.432 82.432 0 0 0 6.81984-33.64864c0-24.84224-8.192-45.30176-24.55552-61.37856s-37.29408-24.10496-62.7712-24.10496z m142.76608 314.65472c0-11.53024-2.2528-22.58944-6.81984-33.19808-4.54656-10.60864-10.60864-19.70176-18.18624-27.27936s-16.67072-13.63968-27.27936-18.18624a83.18976 83.18976 0 0 0-33.19808-6.81984h-113.664c-23.63392 0-43.64288 8.31488-60.02688 25.00608-16.36352 16.67072-24.53504 36.84352-24.53504 60.47744v85.48352H398.336v-85.48352h-0.02048z m421.9904 90.0096c12.12416 0 21.05344-3.01056 26.8288-9.07264s8.64256-13.33248 8.64256-21.83168c0-8.47872-3.31776-15.89248-9.99424-22.28224-6.656-6.36928-16.05632-9.54368-28.18048-9.54368H546.57024c-12.12416 0-21.21728 3.1744-27.27936 9.54368a31.3344 31.3344 0 0 0-9.09312 22.28224c0 8.4992 3.03104 15.79008 9.09312 21.83168s14.86848 9.07264 26.37824 9.07264h274.6368z m0.9216-117.28896c12.12416 0 20.91008-3.03104 26.35776-9.09312s8.17152-13.33248 8.17152-21.8112c0-9.09312-2.56-16.67072-7.72096-22.7328s-13.80352-9.09312-25.92768-9.09312H543.8464c-12.12416 0-20.91008 3.03104-26.37824 9.09312s-8.17152 13.63968-8.17152 22.7328c0 8.47872 2.58048 15.7696 7.72096 21.8112 5.16096 6.06208 13.80352 9.09312 25.94816 9.09312h278.26176z m0.90112-115.5072c9.09312 0 16.97792-3.03104 23.63392-9.09312 6.67648-6.06208 9.99424-13.33248 9.99424-21.8112s-3.31776-15.31904-9.99424-20.45952a37.43744 37.43744 0 0 0-23.63392-7.72096h-184.6272c-9.07264 0-16.81408 2.56-23.18336 7.72096-6.36928 5.14048-9.56416 11.96032-9.56416 20.45952s3.19488 15.7696 9.56416 21.8112c6.36928 6.06208 14.09024 9.09312 23.18336 9.09312h184.6272z" p-id="8517" fill="#6B6868"></path></svg>