<?xml version="1.0" standalone="no"?><!DOCTYPE svg PUBLIC "-//W3C//DTD SVG 1.1//EN" "http://www.w3.org/Graphics/SVG/1.1/DTD/svg11.dtd"><svg t="1495103493050" class="icon" style="" viewBox="0 0 1024 1024" version="1.1" xmlns="http://www.w3.org/2000/svg" p-id="7482" xmlns:xlink="http://www.w3.org/1999/xlink" width="16" height="16"><defs><style type="text/css"></style></defs><path d="M768 722.8C768 748.656 751.712 784 725.84 784l-468.64 0C231.328 784 208 748.656 208 722.8L208 441.6c0-25.904 23.328-41.6 49.216-41.6l47.728 0 107.824-144L116.624 256C90.736 256 64 275.12 64 301.008l0 562.384C64 889.248 90.736 912 116.624 912l749.792 0C892.32 912 912 889.248 912 863.392L912 522.336l-144 122.832L768 722.8z" p-id="7483" fill="#6B6868"></path><path d="M375.248 636.72c0.72 3.968 1.872 7.76 2.72 11.696 41.04-118.896 131.216-207.376 242.88-227.968C641.776 416.608 688 415.52 688 416.56L688 576l37.84 0 234.336-243.712L725.84 112 688 112l0 135.568c0 0.192-39.056 1.456-56.496 4.672C459.136 284.032 341.936 456.144 375.248 636.72z" p-id="7484" fill="#6B6868"></path></svg>