<?xml version="1.0" standalone="no"?><!DOCTYPE svg PUBLIC "-//W3C//DTD SVG 1.1//EN" "http://www.w3.org/Graphics/SVG/1.1/DTD/svg11.dtd"><svg t="1495103332753" class="icon" style="" viewBox="0 0 1024 1024" version="1.1" xmlns="http://www.w3.org/2000/svg" p-id="6624" xmlns:xlink="http://www.w3.org/1999/xlink" width="16" height="16"><defs><style type="text/css"></style></defs><path d="M780.608 647.552c11.584 53.632 21.76 102.208 30.592 145.664 4.096 18.304 7.808 36.672 11.2 54.976 3.392 18.304 6.656 34.944 9.664 49.92 3.072 14.912 5.632 27.648 7.68 38.208 2.048 10.56 3.392 17.152 4.096 19.84 2.048 13.568-1.024 22.592-9.152 27.008-8.128 4.416-17.344 6.656-27.52 6.656-3.392 0-8.32-1.216-14.784-3.584-6.464-2.368-11.392-4.224-14.784-5.632l-266.112-154.816c-48.256 28.544-92.096 54.016-131.52 76.416-17.024 9.536-33.792 19.008-50.496 28.544-16.64 9.472-31.744 18.304-45.376 26.496-13.568 8.128-25.344 14.912-35.2 20.352-9.856 5.44-16.448 8.832-19.904 10.176-6.784 3.392-13.76 4.608-20.864 3.584-7.168-1.024-13.632-3.584-19.392-7.616-5.76-4.096-10.048-9.024-12.736-14.784-2.752-5.76-3.392-11.712-2.048-17.856 0.704-2.688 2.368-9.344 5.12-19.84 2.688-10.496 5.76-23.104 9.152-37.696 3.392-14.592 7.296-30.72 11.712-48.384 4.416-17.664 9.024-35.648 13.76-54.016 10.176-42.112 21.76-89.6 34.688-142.592C208.256 613.952 172.224 583.04 140.288 555.904 126.72 544.32 113.28 532.928 100.032 521.728 86.784 510.528 74.88 500.352 64.32 491.2c-10.56-9.152-19.2-16.64-25.984-22.4-6.784-5.76-10.56-9.024-11.2-9.664-8.128-7.488-15.104-15.808-20.928-24.96C0.448 424.96-1.792 415.68-0.384 406.144c1.344-9.536 5.12-16.96 11.2-22.4 6.144-5.44 12.928-8.832 20.416-10.176L346.24 345.024l117.248-272.96c4.096-10.88 9.856-20.224 17.344-28.032C488.32 36.224 498.496 32.32 511.424 32.32c6.784 0 12.736 1.536 17.856 4.608 5.12 3.072 9.344 6.656 12.736 10.688 3.392 4.096 6.272 8.128 8.64 12.224 2.368 4.096 4.224 7.488 5.632 10.176l114.176 272.96 315.072 29.568c13.568 3.392 23.104 7.488 28.544 12.224 5.44 4.736 8.128 12.224 8.128 22.4 0 9.536-2.88 17.856-8.64 24.96-5.76 7.168-13.056 15.808-21.888 25.984L780.608 647.552zM780.608 647.552" p-id="6625" fill="#6B6868"></path></svg>