<?xml version="1.0" standalone="no"?><!DOCTYPE svg PUBLIC "-//W3C//DTD SVG 1.1//EN" "http://www.w3.org/Graphics/SVG/1.1/DTD/svg11.dtd"><svg t="1495100970620" class="icon" style="" viewBox="0 0 1024 1024" version="1.1" xmlns="http://www.w3.org/2000/svg" p-id="1041" xmlns:xlink="http://www.w3.org/1999/xlink" width="16" height="16"><defs><style type="text/css"></style></defs><path d="M589.018629 681.433924c-34.026978 0-61.616336-27.557636-61.616336-61.599963l0-61.61429c0-33.997302 27.589358-61.616336 61.616336-61.616336l369.68983 0 0 184.831612L589.018629 681.434947zM635.230114 545.402761c-25.51307 0-46.210461 20.669762-46.210461 46.212508 0 25.511024 20.698414 46.210461 46.210461 46.210461s46.212508-20.700461 46.212508-46.210461C681.442622 566.072523 660.742161 545.402761 635.230114 545.402761zM496.59566 558.219671l0 61.61429c0 51.071166 41.397852 92.40762 92.422969 92.40762l308.075541 0 0 123.230626c0 51.085492-41.368176 92.422969-92.422969 92.422969L157.713486 927.895175c-51.025117 0-92.422969-41.337477-92.422969-92.422969L65.290517 250.14413c0-51.025117 41.397852-92.422969 92.422969-92.422969l296.733215 0-72.354911 30.175253-239.781108 0c-25.51307 0-46.182832 20.698414-46.182832 46.210461 0 25.542746 20.669762 46.212508 46.182832 46.212508l754.784512 0 0 185.476295L589.018629 465.795679C537.993512 465.795679 496.59566 507.163855 496.59566 558.219671zM188.521143 342.565053l-61.61429 0 0 61.616336 30.806633 0 0-30.80868 30.806633 0L188.520119 342.565053zM188.521143 434.989045l-61.61429 0 0 61.61429 32.129768 0-1.323135-30.806633 30.806633 0.691755L188.520119 434.989045zM188.521143 527.412015l-61.61429 0 0 61.61429 31.468712 0-0.661056-30.806633 30.806633 0L188.521143 527.412015zM188.521143 619.833961l-61.61429 0 0 61.599963 31.468712 0-0.661056-30.806633 30.806633 0.661056L188.521143 619.833961zM188.521143 712.24158l-61.61429 0L126.906853 773.857916l30.806633 0 0-30.747281 30.806633 0L188.520119 712.24158zM188.521143 804.664549l-61.61429 0 0 61.61429 31.468712 0-0.661056-30.085202 30.806633 0L188.521143 804.664549zM311.781444 248.246921 673.769872 96.104825l69.316715 152.142096L311.781444 248.246921zM732.165864 157.721161l72.505337 0c26.987654 0 51.025117 11.763928 67.934229 30.175253L746.848261 187.896414 732.165864 157.721161z" p-id="1042" fill="#ffffff"></path></svg>